<?xml version="1.0" standalone="no"?>
<!DOCTYPE svg PUBLIC "-//W3C//DTD SVG 20010904//EN"
 "http://www.w3.org/TR/2001/REC-SVG-20010904/DTD/svg10.dtd">
<svg version="1.0" xmlns="http://www.w3.org/2000/svg"
 width="865.000000pt" height="858.000000pt" viewBox="0 0 865.000000 858.000000"
 preserveAspectRatio="xMidYMid meet">

<g transform="translate(0.000000,858.000000) scale(0.100000,-0.100000)"
fill="#000000" stroke="none">
<path d="M3810 7200 l0 -581 463 3 462 3 53 29 c190 106 244 335 123 517 l-39
59 29 52 c57 103 65 185 28 285 -30 79 -113 162 -192 191 -56 21 -71 22 -492
22 l-435 0 0 -580z m822 311 c27 -24 33 -36 33 -71 0 -35 -6 -47 -33 -71 l-32
-29 -265 0 -265 0 0 100 0 100 265 0 265 0 32 -29z m22 -448 c47 -47 47 -120
0 -164 l-26 -24 -279 -3 -279 -3 0 111 0 110 279 0 278 0 27 -27z"/>
<path d="M4109 6208 c-51 -101 -181 -364 -290 -585 l-198 -403 148 0 148 0 46
100 46 100 329 0 329 0 46 -100 46 -100 146 0 c80 0 145 3 145 7 0 3 -132 266
-292 585 l-293 578 -132 0 -133 0 -91 -182z m324 -328 c53 -113 97 -209 97
-213 0 -8 -384 -10 -392 -1 -3 3 30 80 74 172 44 92 89 187 99 211 11 24 21
42 23 40 1 -2 46 -96 99 -209z"/>
<path d="M950 4375 l0 -586 458 3 457 3 67 33 c122 60 188 161 196 297 5 93
-18 167 -71 237 l-32 41 35 71 c31 62 35 78 34 145 0 61 -6 88 -28 138 -33 73
-103 143 -174 176 -46 21 -59 22 -494 25 l-448 3 0 -586z m813 334 c55 -28 74
-100 41 -148 -33 -46 -65 -51 -329 -51 l-245 0 0 105 0 105 256 0 c168 0 263
-4 277 -11z m27 -454 c37 -19 51 -45 52 -95 0 -47 -23 -87 -58 -100 -14 -6
-144 -10 -290 -10 l-264 0 0 110 0 110 265 0 c218 0 271 -3 295 -15z"/>
<path d="M2664 4528 c-119 -238 -252 -502 -296 -586 l-80 -153 152 3 153 3 41
95 42 95 334 0 334 0 42 -95 41 -95 151 -3 151 -3 -288 583 -288 583 -136 3
-137 3 -216 -433z m545 -280 c1 -5 -89 -8 -199 -8 -110 0 -200 3 -200 7 0 5
44 99 97 211 l97 204 102 -204 c57 -111 103 -206 103 -210z"/>
<path d="M3905 4583 l295 -378 0 -207 0 -208 140 0 140 0 0 210 0 210 283 363
c156 199 286 368 291 375 6 9 -28 12 -157 12 l-163 0 -194 -265 c-129 -177
-197 -261 -204 -255 -6 5 -96 124 -201 264 l-190 255 -167 1 -168 0 295 -377z"/>
<path d="M5230 4365 l0 -595 525 0 525 0 0 125 0 125 -387 2 -388 3 -3 113 -3
112 381 0 380 0 0 125 0 125 -377 2 -378 3 0 100 0 100 388 3 387 2 0 125 0
125 -525 0 -525 0 0 -595z"/>
<path d="M6650 4375 l0 -585 140 0 140 0 0 225 0 225 108 0 107 -1 168 -224
167 -225 166 0 166 0 -29 38 c-15 21 -89 118 -164 217 -74 99 -138 185 -142
191 -4 7 14 22 47 38 66 32 129 99 164 174 23 49 27 70 27 152 0 84 -3 102
-28 152 -37 76 -104 143 -175 176 l-57 27 -402 3 -403 3 0 -586z m748 325 c67
-41 75 -126 16 -181 -25 -24 -27 -24 -247 -24 l-222 0 -3 113 -3 112 213 0
c196 0 216 -2 246 -20z"/>
<path d="M3810 2945 l0 -595 528 2 527 3 0 125 0 125 -387 3 -388 2 0 110 0
110 375 0 375 0 0 130 0 130 -375 0 -375 0 0 100 0 100 390 0 390 0 0 125 0
125 -530 0 -530 0 0 -595z"/>
<path d="M3800 1495 l0 -585 135 0 135 0 2 223 3 222 161 3 162 2 168 -224
169 -225 163 0 c89 -1 162 2 162 5 0 6 -253 341 -317 420 l-34 42 44 25 c56
33 123 107 150 165 18 38 22 66 22 147 0 93 -2 105 -33 167 -40 82 -109 146
-187 176 -55 21 -70 22 -481 22 l-424 0 0 -585z m806 330 c42 -17 69 -71 59
-121 -7 -39 -53 -81 -98 -89 -18 -3 -135 -5 -262 -3 l-230 3 -3 99 c-1 55 0
106 2 113 8 20 483 19 532 -2z"/>
</g>
</svg>
